<?xml version="1.0" standalone="no"?>
<!DOCTYPE svg PUBLIC "-//W3C//DTD SVG 20010904//EN"
 "http://www.w3.org/TR/2001/REC-SVG-20010904/DTD/svg10.dtd">
<svg version="1.0" xmlns="http://www.w3.org/2000/svg"
 width="2160.000000pt" height="560.000000pt" viewBox="0 0 2160.000000 560.000000"
 preserveAspectRatio="xMidYMid meet">
<metadata>
Created by potrace 1.16, written by Peter Selinger 2001-2019
</metadata>
<g transform="translate(0.000000,560.000000) scale(0.100000,-0.100000)"
fill="#000000" stroke="none">
<path d="M19155 4624 c-174 -24 -221 -42 -336 -129 -41 -31 -98 -68 -127 -82
-30 -14 -76 -50 -110 -85 -31 -33 -83 -85 -115 -116 -71 -69 -102 -119 -132
-215 -13 -40 -40 -115 -61 -167 -71 -173 -51 -476 40 -625 23 -38 51 -90 61
-115 30 -71 62 -114 118 -161 56 -47 123 -108 252 -231 63 -60 99 -85 170
-118 49 -22 110 -58 135 -78 75 -63 105 -81 188 -113 77 -29 101 -44 199 -123
23 -19 91 -53 155 -77 101 -39 120 -50 177 -107 36 -34 88 -76 116 -92 59 -34
80 -55 128 -132 20 -31 52 -71 71 -89 125 -113 135 -578 16 -719 -17 -19 -55
-65 -85 -101 -75 -93 -87 -100 -258 -168 -267 -105 -342 -111 -597 -46 -30 8
-102 21 -160 30 -211 31 -329 62 -436 116 -231 116 -340 80 -351 -116 -7 -123
35 -167 190 -199 125 -26 176 -45 247 -91 141 -92 315 -114 880 -115 392 0
434 8 578 104 45 30 119 69 165 86 177 66 290 158 442 359 68 89 84 118 118
215 111 320 113 329 69 477 -16 57 -39 163 -50 236 -29 186 -45 215 -205 377
-73 72 -161 155 -197 183 -36 28 -93 81 -126 117 -35 36 -80 74 -105 85 -24
11 -73 33 -109 49 -36 16 -87 48 -115 71 -27 23 -79 56 -115 72 -36 17 -87 41
-115 55 -27 13 -75 44 -105 70 -30 25 -91 63 -136 85 -44 22 -107 63 -140 92
-32 29 -89 74 -125 99 -80 57 -193 176 -235 249 -158 275 -164 296 -130 471
33 165 90 243 245 331 142 82 176 84 321 17 100 -46 178 -63 367 -79 135 -12
242 -44 343 -104 92 -55 200 -87 295 -87 190 0 255 339 89 465 -176 134 -959
229 -1399 169z"/>
<path d="M671 4592 c-138 -46 -206 -183 -205 -411 0 -92 1 -222 1 -291 -1 -69
1 -179 3 -245 4 -109 5 -352 2 -715 0 -74 -1 -182 -1 -240 0 -58 -3 -251 -7
-430 -7 -398 -6 -463 6 -565 13 -106 13 -211 -2 -311 -9 -64 -9 -105 2 -195
11 -101 11 -129 -5 -244 -36 -269 -36 -271 78 -410 103 -126 166 -148 352
-126 262 31 316 125 297 515 -7 156 -10 1111 -3 1198 6 84 110 126 224 92 89
-26 95 -27 197 -16 58 6 144 9 192 5 108 -7 187 7 291 53 44 20 165 57 279 85
212 52 261 72 348 144 29 24 95 67 147 97 112 63 116 68 225 229 244 361 260
946 34 1199 -34 37 -79 96 -101 131 -35 55 -55 74 -150 137 -143 95 -165 106
-293 147 -81 26 -127 48 -186 89 -90 63 -120 71 -306 82 -240 14 -1376 10
-1419 -4z m1333 -402 c259 -44 316 -90 443 -350 161 -331 171 -632 26 -817
-24 -32 -66 -94 -91 -138 -68 -117 -181 -228 -252 -248 -140 -39 -313 -60
-490 -61 -159 -1 -179 -3 -224 -24 -96 -44 -152 -22 -208 83 -21 40 -21 44
-20 742 0 797 -6 742 84 793 70 41 538 53 732 20z"/>
<path d="M7220 4595 c-337 -13 -364 -18 -400 -77 -42 -68 -41 -50 -45 -1763
-2 -913 -7 -1709 -10 -1770 -8 -141 9 -369 31 -424 43 -109 169 -141 549 -141
110 0 238 -5 283 -10 62 -8 104 -8 165 2 56 9 182 12 402 10 200 -2 353 2 407
9 68 9 108 9 185 -1 295 -40 378 -19 474 117 93 130 102 173 51 254 -92 143
-199 166 -502 106 -69 -14 -165 -28 -215 -32 -49 -4 -128 -13 -174 -21 -46 -8
-143 -14 -215 -14 -72 0 -242 -7 -377 -16 -339 -22 -386 -5 -382 134 7 219 1
1076 -8 1174 -21 244 23 287 286 273 504 -26 945 -7 1015 44 105 76 100 241
-10 305 -87 51 -138 55 -675 45 -546 -9 -537 -10 -588 50 -35 43 -41 83 -28
199 18 162 19 174 9 590 -10 467 -10 470 73 510 95 45 523 76 704 52 39 -5
115 -14 170 -20 141 -15 325 -37 505 -60 265 -35 370 27 370 215 0 238 -71
284 -412 265 -130 -7 -245 -9 -255 -6 -31 13 -1063 13 -1383 1z"/>
<path d="M10390 4596 c-135 -41 -165 -71 -195 -199 -17 -73 -30 -3612 -14
-3759 17 -159 50 -216 129 -225 139 -16 242 85 268 262 12 80 9 2548 -3 2677
-11 112 12 158 80 158 58 0 89 -34 199 -220 40 -69 148 -203 236 -295 37 -38
80 -95 95 -125 15 -30 56 -84 90 -120 35 -36 80 -94 101 -130 20 -36 72 -101
114 -145 42 -44 97 -109 122 -145 26 -36 67 -85 93 -110 26 -25 64 -74 85
-110 21 -36 67 -92 102 -125 36 -34 77 -86 95 -120 17 -33 59 -87 93 -120 34
-33 75 -79 91 -102 16 -23 62 -80 101 -125 39 -46 96 -121 126 -168 30 -47 80
-110 111 -140 32 -30 71 -80 88 -110 18 -30 57 -80 88 -110 32 -30 74 -82 95
-115 22 -33 66 -83 98 -112 52 -45 65 -64 102 -153 71 -164 114 -200 243 -200
66 0 122 22 139 54 20 37 24 3860 4 3930 -33 114 -132 200 -233 200 -105 1
-165 -112 -166 -312 -2 -418 12 -2246 18 -2275 38 -196 -95 -278 -179 -110
-14 29 -54 83 -88 120 -33 38 -72 92 -85 122 -15 33 -52 83 -92 125 -37 39
-90 100 -116 136 -27 36 -73 94 -103 129 -29 35 -79 102 -112 150 -32 47 -79
106 -105 131 -25 25 -60 70 -78 100 -17 30 -63 89 -102 130 -38 41 -88 106
-110 145 -22 38 -78 110 -125 160 -47 49 -97 110 -112 135 -14 25 -53 70 -85
100 -32 30 -73 81 -91 113 -18 32 -60 87 -92 122 -32 35 -71 87 -86 116 -14
29 -53 81 -86 115 -32 34 -82 96 -111 137 -218 315 -454 468 -637 413z"/>
<path d="M17219 4595 c-170 -54 -232 -183 -193 -404 23 -133 28 -1930 7 -2386
-14 -281 -48 -497 -92 -570 -42 -73 -156 -198 -220 -242 -36 -26 -86 -65 -111
-86 -168 -146 -818 -178 -1143 -57 -174 65 -346 253 -411 450 -64 194 -60 96
-62 1629 -3 1475 -2 1446 -50 1542 -52 103 -107 124 -329 124 -313 0 -409
-102 -376 -400 8 -63 8 -117 1 -162 -13 -90 -13 -1914 0 -2138 20 -340 125
-725 250 -914 31 -47 72 -112 91 -145 64 -111 203 -218 339 -262 47 -15 137
-53 200 -84 216 -108 335 -125 805 -116 439 8 494 18 632 108 35 22 108 55
164 74 129 43 117 34 295 210 174 173 184 185 225 293 17 45 51 109 76 142 73
100 98 170 114 324 15 147 14 2826 -2 2904 -27 141 -102 200 -210 166z"/>
<path d="M3969 4587 c-94 -21 -127 -52 -157 -149 -28 -92 -31 -3739 -2 -3851
38 -151 51 -160 259 -164 420 -8 800 -15 831 -14 681 4 1028 20 1090 48 384
173 210 564 -195 438 -187 -58 -520 -90 -855 -81 -340 9 -409 35 -440 166 -13
56 -20 2178 -10 3040 6 479 5 483 -95 545 -56 35 -309 48 -426 22z"/>
</g>
</svg>
